<svg xmlns="http://www.w3.org/2000/svg" width="540" height="54" viewBox="0 0 540 54">
	<defs>
		<style>
			.cls-1 {
				fill: #b30b00;
			}

			.cls-2 {
				fill: #fff;
			}

			.cls-3 {
				fill: gray;
			}

			.cls-4 {
				fill: none;
				stroke: #b30b00;
				stroke-linecap: round;
				stroke-miterlimit: 10;
				stroke-width: 3px;
			}
		</style>
	</defs>

	<rect class="cls-1" width="55.385" height="54" rx="9.808"/>
	<path class="cls-2" d="M44.351,31.264c-2.593-2.756-9.763-1.635-11.445-1.354A29.154,29.154,0,0,1,28.118,23.6a28.128,28.128,0,0,0,1.635-8.269c0-2.522-1-5.232-3.808-5.232a2.844,2.844,0,0,0-2.359,1.378c-1.191,2.056-.724,6.307,1.191,10.605a71.691,71.691,0,0,1-4.858,11.4c-2.873,1.145-8.969,3.948-9.553,7.054a2.624,2.624,0,0,0,.84,2.476,3.555,3.555,0,0,0,2.476.888c3.668,0,7.335-5.092,9.811-9.46a62.265,62.265,0,0,1,8.735-2.289c3.878,3.387,7.335,3.9,9.087,3.9,2.382,0,3.27-1.028,3.6-1.892A2.92,2.92,0,0,0,44.351,31.264ZM41.829,33.04c-.117.677-.981,1.354-2.593,1a12.972,12.972,0,0,1-5.092-2.569,21.143,21.143,0,0,1,6.283-.094C41.175,31.521,42.039,31.942,41.829,33.04ZM25.1,12.368a.94.94,0,0,1,.818-.514c.887,0,1.074,1.074,1.074,1.962a27.235,27.235,0,0,1-1.168,6.237C24.334,16.082,24.544,13.326,25.1,12.368Zm-.21,19.41a58.929,58.929,0,0,0,2.313-5.559,29.39,29.39,0,0,0,3.176,4.158A52.416,52.416,0,0,0,24.894,31.778ZM19.031,35.8c-2.359,3.784-4.671,6.166-6.026,6.166a.959.959,0,0,1-.607-.21.87.87,0,0,1-.3-.864C12.351,39.533,15.037,37.571,19.031,35.8Z"/>
	<path class="cls-3" d="M342.672,14.2a26.951,26.951,0,0,1,5.22-.5c3.167,0,5.147.684,6.551,2.016a6.092,6.092,0,0,1,1.692,4.32,6.441,6.441,0,0,1-4.752,6.335v.072c1.944.611,3.168,2.447,3.744,5.147.827,3.78,1.3,5.58,1.8,6.551h-1.8a36.23,36.23,0,0,1-1.548-5.9c-.72-3.491-2.232-5.075-5.436-5.22h-3.779V38.132h-1.692Zm1.692,11.41h3.851c3.744,0,6.192-2.088,6.192-5.291,0-3.708-2.736-5.22-6.551-5.22a16.32,16.32,0,0,0-3.492.324Z"/>
	<path class="cls-3" d="M361.247,29.313c0,5.544,3.024,7.7,6.588,7.7a10.039,10.039,0,0,0,4.787-.972l.432,1.369a11.568,11.568,0,0,1-5.435,1.08c-4.967,0-8.063-3.6-8.063-8.676,0-5.759,3.311-9.359,7.775-9.359,5.651,0,6.731,5.328,6.731,7.812a4.27,4.27,0,0,1-.072,1.043Zm11.015-1.367c.036-2.412-.972-6.083-5.147-6.083-3.816,0-5.472,3.419-5.759,6.083Z"/>
	<path class="cls-3" d="M377.735,35.865a7.644,7.644,0,0,0,3.888,1.187c2.735,0,4.031-1.475,4.031-3.275,0-1.908-1.152-2.916-3.635-3.924-2.844-1.079-4.392-2.627-4.392-4.715,0-2.484,1.944-4.68,5.327-4.68a6.853,6.853,0,0,1,3.816,1.08l-.684,1.4a5.6,5.6,0,0,0-3.419-1.044,3.018,3.018,0,0,0-3.348,2.988c0,1.8,1.224,2.592,3.563,3.564,2.808,1.08,4.464,2.483,4.464,5.111,0,2.951-2.3,4.932-5.831,4.932a8.387,8.387,0,0,1-4.392-1.189Z"/>
	<path class="cls-3" d="M406.641,29.313c0,6.479-4.428,9.215-8.28,9.215-4.463,0-7.918-3.491-7.918-8.891,0-5.939,3.887-9.179,8.17-9.179C403.4,20.458,406.641,24.022,406.641,29.313Zm-14.471.217c0,4.319,2.772,7.558,6.3,7.558,3.6,0,6.443-3.239,6.443-7.667,0-3.168-1.8-7.558-6.335-7.558C394.186,21.863,392.17,25.822,392.17,29.53Z"/>
	<path class="cls-3" d="M424.317,33.92c0,1.513.072,2.88.144,4.212h-1.584l-.108-3.059H422.7a6.7,6.7,0,0,1-5.939,3.455c-2.2,0-5.867-1.079-5.867-7.631V20.855h1.691v9.719c0,3.743,1.188,6.442,4.608,6.442a5.62,5.62,0,0,0,5.075-3.491,6.2,6.2,0,0,0,.36-1.908V20.855h1.692Z"/>
	<path class="cls-3" d="M430.15,26.038c0-1.728-.072-3.528-.144-5.183h1.584l.072,3.491h.072a5.375,5.375,0,0,1,4.931-3.888,4.413,4.413,0,0,1,.684.073v1.655a3,3,0,0,0-.828-.071c-2.376,0-4.067,2.051-4.535,4.823a11.816,11.816,0,0,0-.144,1.655v9.539H430.15Z"/>
	<path class="cls-3" d="M452.289,37.376a11.205,11.205,0,0,1-5.039,1.117c-5,0-8.315-3.6-8.315-8.82,0-5.471,3.743-9.215,8.926-9.215a8.962,8.962,0,0,1,4.536,1.08l-.612,1.4a8.382,8.382,0,0,0-4.1-1.008c-4.644,0-7.02,3.563-7.02,7.631,0,4.5,2.844,7.451,6.84,7.451a10.163,10.163,0,0,0,4.319-.972Z"/>
	<path class="cls-3" d="M456.683,29.313c0,5.544,3.023,7.7,6.587,7.7a10.039,10.039,0,0,0,4.787-.972l.432,1.369a11.568,11.568,0,0,1-5.435,1.08c-4.968,0-8.063-3.6-8.063-8.676,0-5.759,3.311-9.359,7.775-9.359,5.651,0,6.731,5.328,6.731,7.812a4.27,4.27,0,0,1-.072,1.043ZM467.7,27.946c.036-2.412-.972-6.083-5.147-6.083-3.816,0-5.472,3.419-5.76,6.083Z"/>
	<path class="cls-3" d="M483.5,13.871V24.526h13.391V13.871h1.692V38.132h-1.692V26H483.5V38.132H481.81V13.871Z"/>
	<path class="cls-3" d="M517.736,33.92c0,1.513.072,2.88.144,4.212H516.3l-.108-3.059h-.072a6.7,6.7,0,0,1-5.939,3.455c-2.2,0-5.868-1.079-5.868-7.631V20.855H506v9.719c0,3.743,1.188,6.442,4.608,6.442a5.62,5.62,0,0,0,5.075-3.491,6.2,6.2,0,0,0,.36-1.908V20.855h1.692Z"/>
	<path class="cls-3" d="M523.425,38.132c.072-1.223.144-2.735.144-4.031V12.576h1.692V24.058h.072a6.663,6.663,0,0,1,6.335-3.6c4.355,0,7.379,3.636,7.379,8.855,0,6.155-3.924,9.215-7.7,9.215A6.585,6.585,0,0,1,525.153,35h-.072l-.108,3.132Zm1.836-6.659a7.956,7.956,0,0,0,.144,1.26,5.845,5.845,0,0,0,5.687,4.355c3.959,0,6.227-3.239,6.227-7.739,0-3.959-2.16-7.486-6.083-7.486a6.13,6.13,0,0,0-5.759,4.642,5.877,5.877,0,0,0-.216,1.513Z"/>
	<path d="M77.505,32.54l-1.728,5.328a.391.391,0,0,1-.4.288H71.205c-.252,0-.324-.144-.288-.361l7.2-20.768a6.554,6.554,0,0,0,.36-2.2.24.24,0,0,1,.216-.251h5.76c.18,0,.252.036.288.215l8.171,23.037c.072.181.036.325-.18.325h-4.68a.364.364,0,0,1-.4-.252L85.819,32.54Zm6.983-4.5c-.72-2.376-2.16-6.731-2.844-9.287h-.036c-.576,2.411-1.872,6.371-2.808,9.287Z"/>
	<path d="M93.993,29.372c0-5.147,3.851-9.466,10.439-9.466.287,0,.647.036,1.187.072V12.887a.227.227,0,0,1,.252-.252h4.536c.18,0,.216.071.216.216V34.124a20.268,20.268,0,0,0,.144,2.627c0,.181-.036.252-.252.325a18.084,18.084,0,0,1-7.091,1.44C98.1,38.516,93.993,35.492,93.993,29.372Zm11.626-5.111a3.753,3.753,0,0,0-1.332-.18,4.8,4.8,0,0,0-5.147,5.04c0,3.563,2.052,5.111,4.788,5.111a5.072,5.072,0,0,0,1.691-.216Z"/>
	<path d="M130.89,29.121c0,5.651-3.672,9.4-8.855,9.4-6.155,0-8.891-4.644-8.891-9.287,0-5.111,3.42-9.323,8.963-9.323C127.9,19.906,130.89,24.261,130.89,29.121Zm-12.67.036c0,3.168,1.475,5.183,3.887,5.183,2.088,0,3.672-1.8,3.672-5.111,0-2.808-1.152-5.148-3.888-5.148C119.8,24.081,118.22,25.954,118.22,29.157Z"/>
	<path d="M138.775,12.635c.288,0,.36.036.36.288V20.3a11.587,11.587,0,0,1,3.024-.4,8.239,8.239,0,0,1,8.639,8.567c0,6.731-5.328,10.043-10.8,10.043a18.839,18.839,0,0,1-5.651-.828.424.424,0,0,1-.217-.36V12.887c0-.181.073-.252.252-.252Zm2.484,11.519a7.29,7.29,0,0,0-2.124.288V34.2a5.592,5.592,0,0,0,1.332.144c2.735,0,5.219-1.656,5.219-5.4C145.686,25.665,143.778,24.154,141.259,24.154Z"/>
	<path d="M158.322,30.525c.18,2.052,1.62,3.743,5.148,3.743a11.147,11.147,0,0,0,4.427-.828c.108-.071.216-.035.216.181v3.418c0,.252-.072.361-.252.433a12.081,12.081,0,0,1-5.507,1.044c-6.767,0-9.143-4.644-9.143-9.107,0-4.967,3.059-9.5,8.711-9.5,5.435,0,7.595,4.212,7.595,7.775a11.538,11.538,0,0,1-.18,2.412.308.308,0,0,1-.288.287,33.067,33.067,0,0,1-3.708.145ZM163,27.033a11.71,11.71,0,0,0,1.8-.072v-.252a2.927,2.927,0,0,0-3.059-2.843,3.409,3.409,0,0,0-3.456,3.167Z"/>
	<path d="M185.393,32.54l-1.727,5.328a.391.391,0,0,1-.4.288h-4.176c-.252,0-.324-.144-.288-.361l7.2-20.768a6.554,6.554,0,0,0,.36-2.2.24.24,0,0,1,.216-.251h5.759c.181,0,.252.036.289.215l8.17,23.037c.072.181.037.325-.179.325h-4.68a.364.364,0,0,1-.4-.252l-1.836-5.364Zm6.984-4.5c-.72-2.376-2.16-6.731-2.844-9.287H189.5c-.576,2.411-1.872,6.371-2.808,9.287Z"/>
	<path d="M214.876,37.652c0,.179-.036.252-.18.288a11.158,11.158,0,0,1-4.031.576c-5.832,0-9.5-3.924-9.5-9.215,0-5.4,4.067-9.395,10.187-9.395a9.8,9.8,0,0,1,3.311.4c.18.071.216.18.216.4l-.036,3.708c0,.252-.144.288-.288.252a8.979,8.979,0,0,0-3.024-.433c-3.023,0-5.219,1.656-5.219,4.9,0,3.744,2.772,4.967,5.291,4.967a11.857,11.857,0,0,0,2.988-.324c.216-.072.288,0,.288.145Z"/>
	<path d="M221.9,20.266a.4.4,0,0,1,.433.324,6.9,6.9,0,0,1,.395,2.016,7.514,7.514,0,0,1,5.724-2.7c.216,0,.287.072.287.288v4.427c0,.18-.071.252-.323.252-2.592-.108-4.68.684-5.436,1.548l-.036,11.447c0,.215-.072.288-.324.288H218.3c-.288,0-.36-.109-.36-.325V25.413c0-1.547-.036-3.635-.18-4.895,0-.18.036-.252.216-.252Z"/>
	<path d="M248.066,29.121c0,5.651-3.672,9.4-8.855,9.4-6.155,0-8.891-4.644-8.891-9.287,0-5.111,3.42-9.323,8.963-9.323C245.078,19.906,248.066,24.261,248.066,29.121Zm-12.67.036c0,3.168,1.475,5.183,3.887,5.183,2.088,0,3.672-1.8,3.672-5.111,0-2.808-1.152-5.148-3.888-5.148C236.979,24.081,235.4,25.954,235.4,29.157Z"/>
	<path d="M255.951,12.635c.288,0,.36.036.36.288V20.3a11.587,11.587,0,0,1,3.024-.4,8.239,8.239,0,0,1,8.639,8.567c0,6.731-5.328,10.043-10.8,10.043a18.844,18.844,0,0,1-5.651-.828.423.423,0,0,1-.216-.36V12.887c0-.181.072-.252.252-.252Zm2.484,11.519a7.29,7.29,0,0,0-2.124.288V34.2a5.592,5.592,0,0,0,1.332.144c2.736,0,5.219-1.656,5.219-5.4C262.862,25.665,260.955,24.154,258.435,24.154Z"/>
	<path d="M284.534,34.161c0,.935,0,1.691.072,2.555,0,.072,0,.144-.072.18a19.868,19.868,0,0,1-7.847,1.62c-4,0-7.272-1.836-7.272-6.012,0-3.815,3.348-5.831,8.135-5.831a15.013,15.013,0,0,1,2.124.073v-.252c0-.685-.432-2.269-3.455-2.269a11.517,11.517,0,0,0-4.752.973.213.213,0,0,1-.324-.181V21.382a.314.314,0,0,1,.252-.36,13.542,13.542,0,0,1,5.652-1.116c5.183,0,7.487,3.2,7.487,7.307Zm-4.86-3.708a13.271,13.271,0,0,0-1.8-.108c-2.555,0-3.6.827-3.6,2.123,0,1.189.9,2.16,3.168,2.16a7.265,7.265,0,0,0,2.231-.324Z"/>
	<path d="M297.494,37.543c0,.217-.036.4-.252.469a8.961,8.961,0,0,1-3.2.5c-3.132,0-4.967-1.548-4.967-5.147V24.442h-2.16c-.216-.036-.288-.109-.288-.324V20.59c0-.252.072-.324.324-.324h2.16a39.422,39.422,0,0,1,.36-4.355.383.383,0,0,1,.324-.325l4.211-.54c.18-.036.288-.036.288.216-.108,1.116-.18,3.24-.18,5h3.312c.216,0,.288.072.288.288V24.19c0,.18-.072.216-.252.252h-3.384v7.7c0,1.584.468,2.3,1.944,2.3a7.094,7.094,0,0,0,1.224-.144c.144,0,.252.036.252.252Z"/>
	<line class="cls-4" x1="322.102" y1="12.199" x2="322.102" y2="39.199"/>
</svg>
