<svg xmlns="http://www.w3.org/2000/svg" width="1500" height="1500" viewBox="0 0 1500 1500">
    <defs>
        <style>
            .cls-1 {
                fill: #fff;
            }
        </style>
    </defs>
    <path class="cls-1" d="M1452.86,929.719c-109.492-116.4-412.32-69.048-483.342-57.211C864.958,770.907,791.964,650.565,767.3,606.176c39.456-112.45,65.1-231.806,69.048-349.189,0-106.533-42.415-220.956-160.785-220.956a119.988,119.988,0,0,0-99.627,58.2c-50.307,86.8-30.579,266.331,50.307,447.831C578.9,675.225,510.837,867.576,421.073,1023.429c-121.329,48.334-378.782,166.7-403.442,297.9-7.892,38.47,5.918,77.926,35.51,104.56,28.606,25.646,66.09,38.469,104.56,37.483,154.867,0,309.733-215.038,414.293-399.5,87.791-30.578,227.861-71.021,368.918-96.668,163.744,143.03,309.733,164.731,383.714,164.731,100.614,0,138.1-43.4,151.907-79.9A123.221,123.221,0,0,0,1452.86,929.719Zm-106.533,74.968c-4.932,28.606-41.429,57.212-109.492,42.416A547.853,547.853,0,0,1,1021.8,938.6c53.266-8.877,177.554-20.714,265.344-3.945C1318.708,940.57,1355.205,958.325,1346.327,1004.687ZM640.056,131.712c6.9-12.823,19.729-21.7,34.525-21.7,37.484,0,45.375,45.375,45.375,82.859-4.932,89.763-24.661,181.5-49.321,263.372C607.505,288.552,616.383,172.155,640.056,131.712ZM631.179,951.42c33.538-66.089,80.885-186.431,97.654-234.765,37.484,62.143,100.615,140.07,134.152,175.581C863.972,891.249,734.752,917.883,631.179,951.42Zm-247.59,169.663C283.962,1280.882,186.307,1381.5,129.1,1381.5c-8.877,0-18.742-2.959-25.646-8.878a36.766,36.766,0,0,1-12.824-36.5C101.476,1278.909,214.913,1196.051,383.589,1121.083Z"/>
</svg>
